<svg width="650" height="650" viewBox="0 0 650 650" fill="none" xmlns="http://www.w3.org/2000/svg">
<rect width="650" height="650" rx="29" fill="#3ECF8E"/>
<path d="M402 141C512.457 141 602 230.543 602 341C602 451.457 512.457 541 402 541C375.476 541 350.16 535.834 326.998 526.458C303.838 535.834 278.523 541 252 541C141.543 541 52 451.457 52 341C52 230.543 141.543 141 252 141C278.522 141 303.838 146.165 326.998 155.541C350.16 146.165 375.476 141 402 141ZM401.5 189C395.322 189 389.231 189.372 383.247 190.091C383.331 190.164 383.417 190.237 383.501 190.311C309.282 200.098 252 263.609 252 340.5C252 417.734 309.794 481.468 384.494 490.817C384.414 490.888 384.333 490.957 384.253 491.027C389.913 491.669 395.668 492 401.5 492C485.171 492 553 424.171 553 340.5C553 256.829 485.171 189 401.5 189Z" fill="#1E1E1E"/>
</svg>
